<svg height="480pt" viewBox="0 -68 480.00373 480" width="480pt" xmlns="http://www.w3.org/2000/svg"><path d="m232.003906 8h-64l64 144h112zm0 0" fill="#36afad"/><path d="m56.003906 56h-48l48 96h80zm0 0" fill="#36afad"/><path d="m392.003906 104h-304l-80 16v32l31.792969 25.433594c31.207031 24.964844 69.980469 38.566406 109.941406 38.566406h242.265625l73.144532-43.886719c3.367187-1.984375 5.746093-5.292969 6.554687-9.121093.808594-3.824219-.03125-7.8125-2.308594-10.992188h-77.390625zm0 0" fill="#7fcac9"/><g fill="#195c85"><path d="m465.148438 147.882812-73.144532-43.882812v48h77.390625c-1.109375-1.65625-2.554687-3.058594-4.246093-4.117188zm0 0"/><path d="m360.003906 144c0 8.839844-7.164062 16-16 16-8.835937 0-16-7.160156-16-16 0-8.835938 7.164063-16 16-16 8.835938 0 16 7.164062 16 16zm0 0"/><path d="m296.003906 144c0 8.839844-7.164062 16-16 16-8.835937 0-16-7.160156-16-16 0-8.835938 7.164063-16 16-16 8.835938 0 16 7.164062 16 16zm0 0"/><path d="m232.003906 144c0 8.839844-7.164062 16-16 16-8.835937 0-16-7.160156-16-16 0-8.835938 7.164063-16 16-16 8.835938 0 16 7.164062 16 16zm0 0"/><path d="m168.003906 144c0 8.839844-7.164062 16-16 16-8.835937 0-16-7.160156-16-16 0-8.835938 7.164063-16 16-16 8.835938 0 16 7.164062 16 16zm0 0"/></g><path d="m232.003906 336h-64l64-152h112zm0 0" fill="#36afad"/><path d="m34.796875 183.683594c32.652344 26.050781 73.171875 40.265625 114.941406 40.316406h56.738281l-45.847656 108.898438c-1.042968 2.46875-.773437 5.296874.707032 7.53125 1.484374 2.230468 3.988281 3.574218 6.667968 3.570312h64c2.527344-.011719 4.902344-1.21875 6.398438-3.253906l86.066406-116.746094h67.535156c1.453125 0 2.875-.394531 4.121094-1.140625l73.132812-43.882813c6.648438-4.015624 10.722657-11.207031 10.746094-18.976562-.027344-4.480469-1.421875-8.847656-4-12.519531v-.046875c-1.753906-2.585938-4.039062-4.769532-6.703125-6.398438l-73.136719-43.882812c-.4375-.214844-.886718-.410156-1.34375-.582032-.898437-.359374-1.851562-.550781-2.816406-.570312h-81.425781l-72.261719-92.910156c-1.515625-1.949219-3.84375-3.08593775-6.3125-3.089844h-64c-2.707031 0-5.234375 1.371094-6.707031 3.640625-1.476563 2.269531-1.703125 5.132813-.605469 7.609375l37.664063 84.75h-98.601563l-37.597656-45.117188c-1.523438-1.828124-3.777344-2.882812-6.152344-2.882812h-48c-2.773437 0-5.347656 1.433594-6.808594 3.792969-1.457031 2.359375-1.589843 5.304687-.351562 7.785156l24.414062 48.800781-18.855468 3.78125c-3.722656.761719-6.39843775 4.039063-6.39843775 7.839844v32c0 2.433594 1.10156275 4.730469 2.99999975 6.25zm193.207031 144.316406h-47.953125l57.265625-136h90.855469zm172-209.871094 43.121094 25.871094h-43.121094zm-219.6875-102.128906h47.773438l62.226562 80h-74.449218zm-159.367187 48h31.300781l27.859375 33.425781-38.585937 7.710938zm-4.945313 62.5625 72.800782-14.5625h295.199218v40c0 4.421875 3.582032 8 8 8h72c-.007812 2.152344-1.132812 4.144531-2.976562 5.257812l-71.238282 42.742188h-53.539062l14.195312-19.253906c1.789063-2.429688 2.058594-5.660156.695313-8.351563-1.359375-2.695312-4.121094-4.390625-7.136719-4.394531h-112c-3.21875 0-6.125 1.929688-7.375 4.898438l-11.410156 27.101562h-63.480469c-38.132812-.042969-75.125-13.015625-104.933593-36.796875l-28.800782-23.042969zm0 0"/><path d="m344.003906 168c13.253906 0 24-10.742188 24-24 0-13.253906-10.746094-24-24-24s-24 10.746094-24 24c0 13.257812 10.746094 24 24 24zm0-32c4.417969 0 8 3.582031 8 8 0 4.421875-3.582031 8-8 8-4.417968 0-8-3.578125-8-8 0-4.417969 3.582032-8 8-8zm0 0"/><path d="m280.003906 168c13.253906 0 24-10.742188 24-24 0-13.253906-10.746094-24-24-24s-24 10.746094-24 24c0 13.257812 10.746094 24 24 24zm0-32c4.417969 0 8 3.582031 8 8 0 4.421875-3.582031 8-8 8-4.417968 0-8-3.578125-8-8 0-4.417969 3.582032-8 8-8zm0 0"/><path d="m216.003906 168c13.253906 0 24-10.742188 24-24 0-13.253906-10.746094-24-24-24s-24 10.746094-24 24c0 13.257812 10.746094 24 24 24zm0-32c4.417969 0 8 3.582031 8 8 0 4.421875-3.582031 8-8 8-4.417968 0-8-3.578125-8-8 0-4.417969 3.582032-8 8-8zm0 0"/><path d="m152.003906 168c13.253906 0 24-10.742188 24-24 0-13.253906-10.746094-24-24-24s-24 10.746094-24 24c0 13.257812 10.746094 24 24 24zm0-32c4.417969 0 8 3.582031 8 8 0 4.421875-3.582031 8-8 8-4.417968 0-8-3.578125-8-8 0-4.417969 3.582032-8 8-8zm0 0"/></svg>