<svg height="489pt" viewBox="0 -100 489.09473 489" width="489pt" xmlns="http://www.w3.org/2000/svg"><path d="m382.199219 135.59375c.007812-4.871094 3.953125-8.816406 8.824219-8.824219h43.667968v-18h-43.671875c-14.8125 0-26.824219 12.011719-26.824219 26.824219 0 14.816406 12.011719 26.824219 26.824219 26.824219h76.640625v-18h-76.640625c-4.867187-.007813-8.8125-3.953125-8.820312-8.824219zm0 0" fill="#0635c9"/><path d="m271.144531 249.074219h-34.597656l34.386719-60.988281-4.980469-.5h-56.28125c-33.40625 0-64.253906-17.902344-80.828125-46.90625-5.796875-10.144532-8.84375-21.621094-8.84375-33.300782v-90.402344c-9.144531-5.199218-19.480469-7.929687-30-7.929687v128.328125c0 11.683594 3.046875 23.160156 8.84375 33.300781 16.574219 29.007813 47.421875 46.90625 80.828125 46.90625h56.28125l4.980469.5-34.386719 60.988281h34.597656c28.640625 0 55.53125-13.761718 72.285157-36.988281l2.675781-5.1875c-13.640625 7.976563-29.160157 12.175781-44.960938 12.179688zm0 0" fill="#d4e1f4"/><path d="m468.308594 196.460938c-.609375.019531-1.222656.03125-1.839844.03125h-125.285156l-2.578125-.261719-8.175781 15.847656c-3.800782 5.265625-8.164063 10.097656-13.011719 14.414063h119.050781c.617188 0 1.230469-.011719 1.839844-.03125 20.554687-.695313 35.078125-14.601563 39.921875-31.453126-3.242188.859376-6.570313 1.34375-9.921875 1.453126zm0 0" fill="#d4e1f4"/><path d="m436.46875 235.496094h-112.289062c-4.96875 0-9-4.03125-9-9 0-4.972656 4.03125-9 9-9h112.289062c.515625 0 1.027344-.011719 1.535156-.027344 16.683594-.5625 26.785156-11.839844 30.671875-22.203125 4-10.660156 3.792969-26.25-8.796875-38.019531l-45.402344-42.4375c-6.46875-6.0625-15.007812-9.433594-23.878906-9.421875h-231.085937c-4.113281 0-7.703125-2.789063-8.722657-6.773438l-10.597656-41.570312c-5.023437-19.726563-21.140625-34.683594-41.191406-38.210938v118.542969c.003906 10.113281 2.644531 20.050781 7.65625 28.835938 15 26.171874 42.847656 42.332031 73.015625 42.371093h56.28125c4.972656 0 9 4.027344 9 9 0 4.96875-4.027344 9-9 9h-56.28125c-36.625-.046875-70.429687-19.664062-88.644531-51.441406-6.566406-11.503906-10.023438-24.519531-10.027344-37.765625v-128.328125c0-4.96875 4.03125-9 9-9 31.90625-.015625 59.757812 21.621094 67.628906 52.542969l8.871094 34.792968h224.101562c13.433594-.019531 26.367188 5.085938 36.167969 14.273438l45.402344 42.433594c15.875 14.582031 21.179687 37.410156 13.359375 57.496094-7.566406 20.171874-25.546875 33.148437-46.917969 33.871093-.714843.023438-1.429687.035157-2.144531.039063zm0 0" fill="#1ae5be"/><g fill="#0635c9"><path d="m332.242188 186.300781h-78.464844c-3.246094 0-6.242188 1.753907-7.839844 4.582031l-47.230469 83.769532c-1.570312 2.789062-1.542969 6.199218.070313 8.960937 1.613281 2.761719 4.570312 4.460938 7.769531 4.460938h34.597656c31.523438-.042969 61.113281-15.183594 79.582031-40.726563.261719-.363281.496094-.742187.703126-1.136718l18.644531-36.128907c1.117187-1.917969 1.480469-4.179687 1.589843-9.15625.128907-5.71875-.351562-7.789062-1.277343-9.605469-1.550781-3.074218-4.699219-5.015624-8.144531-5.019531zm-26.5 51.042969c-15.113282 20.546875-39.089844 32.695312-64.597657 32.730469h-19.191406l37.082031-65.773438h63.765625zm0 0"/><path d="m321.601562 137.375c0-4.96875-4.03125-9-9-9h-124.574218c-4.96875 0-9 4.03125-9 9 0 4.972656 4.03125 9 9 9h124.574218c4.96875 0 9-4.027344 9-9zm0 0"/><path d="m46 68.058594c4.96875 0 9-4.027344 9-9 0-4.96875-4.03125-9-9-9h-16c-4.96875 0-9 4.03125-9 9 0 4.972656 4.03125 9 9 9zm0 0"/><path d="m56 107.558594h-47c-4.96875 0-9 4.03125-9 9 0 4.972656 4.03125 9 9 9h47c4.96875 0 9-4.027344 9-9 0-4.96875-4.03125-9-9-9zm0 0"/><path d="m49 165.058594h-23c-4.96875 0-9 4.03125-9 9 0 4.972656 4.03125 9 9 9h23c4.96875 0 9-4.027344 9-9 0-4.96875-4.03125-9-9-9zm0 0"/></g></svg>