<?xml version="1.0" encoding="iso-8859-1"?>
<!-- Generator: Adobe Illustrator 16.0.0, SVG Export Plug-In . SVG Version: 6.00 Build 0)  -->
<!DOCTYPE svg PUBLIC "-//W3C//DTD SVG 1.1//EN" "http://www.w3.org/Graphics/SVG/1.1/DTD/svg11.dtd">
<svg version="1.1" id="Capa_1" xmlns="http://www.w3.org/2000/svg" xmlns:xlink="http://www.w3.org/1999/xlink" x="0px" y="0px"
	 width="612px" height="612px" viewBox="0 0 612 612" style="enable-background:new 0 0 612 612;" xml:space="preserve">
<g>
	<g id="envelope">
		<g>
			<path d="M611.942,76.247c0.077-4.915-1.702-9.83-5.45-13.578c-3.997-3.998-9.314-5.623-14.535-5.26H20.043
				c-5.221-0.345-10.538,1.281-14.535,5.26c-3.749,3.748-5.527,8.663-5.45,13.578C0.058,76.343,0,76.419,0,76.515v459.001
				c0,10.557,8.568,19.125,19.125,19.125h573.75c10.557,0,19.125-8.568,19.125-19.125V76.515
				C612,76.419,611.942,76.343,611.942,76.247z M541.85,95.64L306,300.144L70.15,95.64H541.85z M573.75,497.266
				c0,10.557-8.568,19.125-19.125,19.125H57.375c-10.557,0-19.125-8.568-19.125-19.125V117.653L291.178,336.94
				c0.42,0.535,0.612,1.186,1.109,1.683c3.787,3.787,8.759,5.527,13.712,5.432c4.953,0.115,9.926-1.645,13.713-5.432
				c0.497-0.497,0.688-1.147,1.109-1.683L573.75,117.653V497.266z"/>
		</g>
	</g>
</g>
<g>
</g>
<g>
</g>
<g>
</g>
<g>
</g>
<g>
</g>
<g>
</g>
<g>
</g>
<g>
</g>
<g>
</g>
<g>
</g>
<g>
</g>
<g>
</g>
<g>
</g>
<g>
</g>
<g>
</g>
</svg>
